<svg xmlns="http://www.w3.org/2000/svg" viewBox="0 0 21 15"><defs><linearGradient id="a" x1="10.5" x2="10.5" y2="15" gradientUnits="userSpaceOnUse"><stop offset="0" stop-color="#e6e6e6"/><stop offset="1" stop-color="#999"/></linearGradient></defs><path fill="url(#a)" d="M0 0h21v15H0z"/><path d="M13.71 5a2.76 2.76 0 01-.23 1.14 3.12 3.12 0 01-.6.88 5.16 5.16 0 01-.83.69c-.32.22-.66.43-1 .64v1.49H9.87v-2l.92-.52a5 5 0 00.8-.58 3.09 3.09 0 00.59-.7 1.93 1.93 0 00.2-.92A1.27 1.27 0 0011.89 4a2.16 2.16 0 00-1.29-.36 3.91 3.91 0 00-1.33.22 5.24 5.24 0 00-1 .45h-.06V3a7.87 7.87 0 011.16-.3 6.9 6.9 0 011.32-.14 3.35 3.35 0 012.21.68A2.22 2.22 0 0113.71 5zm-2.57 7.41H9.81v-1.34h1.33z" fill="#555"/></svg>